<?xml version="1.0" encoding="utf-8"?>
<!-- Generator: Adobe Illustrator 27.8.1, SVG Export Plug-In . SVG Version: 6.00 Build 0)  -->
<svg version="1.1" id="Layer_1" xmlns="http://www.w3.org/2000/svg" xmlns:xlink="http://www.w3.org/1999/xlink" x="0px" y="0px"
	 viewBox="0 0 852.1 183.1" style="enable-background:new 0 0 852.1 183.1;" xml:space="preserve">
<style type="text/css">
	.st0{fill:#06283D;}
	.st1{fill:#1363DF;}
	.st2{fill:#47B5FF;}
	.st3{fill:none;stroke:url(#SVGID_1_);stroke-width:2;stroke-miterlimit:10;}
	.st4{fill:none;stroke:url(#SVGID_00000168075127084688639740000008071618478977633451_);stroke-width:2;stroke-miterlimit:10;}
	.st5{fill:none;stroke:url(#SVGID_00000123435844394519535950000007171352335591972995_);stroke-width:2;stroke-miterlimit:10;}
</style>
<g>
	<g>
		<path class="st0" d="M398.8,131.4h-14.5V51.7h14.5V131.4z"/>
		<path class="st0" d="M478,51.7v61.5l-47.9-60.4c-0.6-0.7-1.4-1.1-2.4-1.1h-13v79.7h14.5V69.9l47.9,60.4c0.6,0.7,1.4,1.1,2.4,1.1
			h13V51.7H478z"/>
		<path class="st0" d="M669.9,66.1H638v65.3h-14.5V66.1h-31.9V51.7h78.2V66.1z"/>
		<path class="st0" d="M852.1,98.9c0,4.7-0.8,9.1-2.4,13c-1.6,4-3.9,7.4-6.8,10.3c-2.9,2.9-6.3,5.1-10.2,6.7
			c-3.9,1.6-8.2,2.4-12.9,2.4h-19c-4.7,0-9-0.8-12.9-2.4c-4-1.6-7.4-3.8-10.3-6.7c-2.9-2.9-5.1-6.3-6.8-10.3c-1.6-4-2.5-8.3-2.5-13
			V84.1c0-4.7,0.8-9,2.5-13c1.6-4,3.9-7.4,6.8-10.3c2.9-2.9,6.3-5.1,10.3-6.7c4-1.6,8.3-2.4,12.9-2.4h19c4.7,0,8.9,0.8,12.9,2.4
			s7.4,3.9,10.2,6.7c2.9,2.9,5.1,6.3,6.8,10.3c1.6,4,2.4,8.3,2.4,13V98.9z M838.1,84.1c0-2.8-0.4-5.3-1.3-7.5
			c-0.9-2.3-2.1-4.2-3.7-5.8c-1.6-1.6-3.5-2.8-5.8-3.7c-2.3-0.9-4.7-1.3-7.4-1.3h-19c-2.7,0-5.2,0.4-7.5,1.3
			c-2.3,0.9-4.2,2.1-5.8,3.7c-1.6,1.6-2.9,3.5-3.8,5.8c-0.9,2.3-1.3,4.8-1.3,7.5v14.8c0,2.8,0.4,5.3,1.3,7.5
			c0.9,2.3,2.1,4.2,3.8,5.8c1.6,1.6,3.6,2.8,5.8,3.7c2.3,0.9,4.7,1.3,7.5,1.3h18.9c2.7,0,5.2-0.4,7.5-1.3c2.3-0.9,4.2-2.1,5.8-3.7
			s2.9-3.5,3.8-5.8c0.9-2.3,1.3-4.8,1.3-7.5V84.1z"/>
		<g>
			<path class="st0" d="M587.3,98c0,4.9-0.8,9.3-2.5,13.4s-4,7.6-7,10.5c-3,2.9-6.5,5.3-10.6,6.9c-4.1,1.7-8.5,2.5-13.3,2.5h-39
				c-1,0-2-0.2-2.9-0.6c-0.9-0.4-1.7-0.9-2.3-1.5c-0.6-0.6-1.2-1.4-1.5-2.3c-0.4-0.9-0.6-1.9-0.6-2.9V59c0-1,0.2-1.9,0.6-2.8
				c0.4-0.9,0.9-1.7,1.5-2.3c0.6-0.7,1.4-1.2,2.3-1.6c0.9-0.4,1.9-0.6,2.9-0.6h39c4.8,0,9.2,0.8,13.3,2.5c4.1,1.7,7.6,4,10.6,6.9
				c3,2.9,5.3,6.5,7,10.6c1.7,4.1,2.5,8.6,2.5,13.4V98z M572.8,85c0-2.8-0.5-5.4-1.4-7.7c-0.9-2.3-2.2-4.3-3.9-6
				c-1.7-1.6-3.7-2.9-6-3.8c-2.3-0.9-4.9-1.4-7.7-1.4h-31.8v50.8h31.8c2.8,0,5.4-0.5,7.7-1.4c2.3-0.9,4.3-2.2,6-3.8
				c1.7-1.6,3-3.6,3.9-5.9c0.9-2.3,1.4-4.9,1.4-7.8V85z"/>
			<polygon class="st0" points="521.9,131.4 507.6,119.6 507.6,131.4 			"/>
			<polygon class="st0" points="521.9,51.7 507.6,63.4 507.6,51.7 			"/>
		</g>
		<g>
			<path class="st0" d="M707.8,105.3V90.9h23.2c1.8-0.1,3.5-0.5,5-1.1c1.5-0.6,2.8-1.4,3.9-2.5c1.1-1,1.9-2.3,2.5-3.8
				c0.6-1.5,0.9-3.1,0.9-5v-9.1c0-0.8-0.1-1.4-0.3-1.9c-0.2-0.4-0.5-0.7-0.8-0.9c-0.3-0.2-0.6-0.3-1-0.4c-0.4,0-0.7-0.1-1-0.1h-47.7
				v65.3H678V59c0-1,0.2-1.9,0.6-2.8c0.4-0.9,0.9-1.7,1.5-2.3c0.6-0.7,1.4-1.2,2.3-1.6c0.9-0.4,1.9-0.6,2.9-0.6h54.9
				c3.2,0,5.9,0.6,8.2,1.8c2.2,1.2,4,2.6,5.4,4.4c1.4,1.8,2.4,3.7,3,5.7c0.6,2,0.9,3.9,0.9,5.7v9.2c0,3.3-0.4,6.2-1.2,8.8
				c-0.8,2.6-1.9,4.9-3.3,6.9c-1.4,2-3,3.7-4.8,5.1c-1.8,1.4-3.7,2.6-5.7,3.5c-2,0.9-4,1.6-6,2c-2,0.4-4.7,0.6-6.5,0.6l31,26.1
				h-22.3"/>
			<polygon class="st0" points="690,51.7 678,61.5 678,51.7 			"/>
		</g>
		<path class="st0" d="M353.1,53.4l-30.2,63.3l-30.2-63.3c-0.5-1-1.6-1.7-2.7-1.7h-12.2v79.7h14.1V81.1l23.2,48.6
			c0.5,1,1.6,1.7,2.7,1.7h10.3c1.2,0,2.2-0.7,2.7-1.7l23.1-48.5v50.2H368V51.7h-12.2C354.6,51.7,353.6,52.3,353.1,53.4z"/>
	</g>
	<g>
		<g>
			<g>
				<path class="st1" d="M244.4,1c2-1.6,3.7-0.9,3.7,1.7v63.7c0,2.6-1.6,6.1-3.7,7.7l-116.7,95.6c-2,1.6-5.4,1.8-7.5,0.2L79.9,141
					c-2.1-1.5-2.2-4.1-0.2-5.7L244.4,1z"/>
			</g>
			<g>
				<path class="st0" d="M3.7,182.1c-2,1.6-3.7,0.8-3.7-1.8L0,2.7c0-2.6,1.7-3.5,3.8-2l115.2,82.7c2.1,1.5,2.2,4.1,0.2,5.7
					L3.7,182.1z"/>
			</g>
			<g>
				<path class="st2" d="M244.4,88.4c2-1.6,3.7-0.8,3.7,1.8l0,90.2c0,2.6-1.7,3.5-3.8,2l-57.8-41.3c-2.1-1.5-2.2-4.1-0.2-5.7
					L244.4,88.4z"/>
			</g>
		</g>
	</g>
</g>
</svg>
